<svg width="20" height="20" viewBox="0 0 20 20" fill="none" xmlns="http://www.w3.org/2000/svg">
<path d="M10.0003 0C15.4955 0 20.0003 4.45495 20.0003 9.9502L19.9876 10.4619C19.7182 15.7193 15.3238 19.9004 10.0003 19.9004L9.48854 19.8867C8.64787 19.8442 7.83401 19.6964 7.05943 19.4574C6.22511 19.2 5.34229 19.0768 4.4894 19.2637L1.21412 19.9814C0.884915 20.0535 0.541853 19.9545 0.301038 19.7188C0.0604532 19.483 -0.0461735 19.142 0.0188116 18.8115L0.683386 15.4349C0.848 14.5985 0.716001 13.7392 0.458541 12.9266C0.210088 12.1424 0.0567357 11.3165 0.0129523 10.4619L0.00025694 9.9502C0.00025694 4.45498 4.50506 4.82945e-05 10.0003 0ZM10.0003 2C5.59656 2.00005 2.00026 5.57257 2.00026 9.9502C2.00028 11.0191 2.21655 12.0391 2.6051 12.9716C2.67981 13.1509 2.8024 13.3035 2.89043 13.4767V13.4767C2.98005 13.6529 3.03198 13.851 3.13415 14.0203C3.81727 15.1523 4.77558 16.1029 5.91578 16.7799C6.08245 16.8789 6.27643 16.9296 6.44913 17.0176V17.0176C6.61427 17.1018 6.7613 17.2165 6.93244 17.2877C7.87825 17.6811 8.91424 17.9004 10.0003 17.9004C14.4039 17.9004 18.0002 14.3278 18.0003 9.9502C18.0003 5.57254 14.404 2 10.0003 2Z" fill="url(#paint0_radial_156_320)"/>
<path d="M8.34149 11.181L6.12094 14.7319C6.06838 14.816 6.1288 14.925 6.22793 14.925C6.26139 14.925 6.29348 14.9117 6.31714 14.8881L11.2798 9.92816C11.3066 9.90145 11.3288 9.87061 11.3457 9.83682C11.4626 9.60314 11.2927 9.32814 11.0314 9.32814H10.7323C10.2441 9.32814 10.0098 8.72881 10.3687 8.39775L12.8108 6.14473C12.8782 6.08256 12.8342 5.97001 12.7425 5.97001C12.7278 5.97001 12.7133 5.97323 12.6999 5.97945L8.93847 7.73383C8.66658 7.86064 8.4417 8.07011 8.29594 8.33233L7.51609 9.73528C7.33849 10.0548 7.56952 10.4475 7.93506 10.4475C8.31162 10.4475 8.54114 10.8618 8.34149 11.181Z" stroke="url(#paint1_radial_156_320)" stroke-linecap="round" stroke-linejoin="round"/>
<defs>
<radialGradient id="paint0_radial_156_320" cx="0" cy="0" r="1" gradientUnits="userSpaceOnUse" gradientTransform="translate(10.0002 10.0023) rotate(90) scale(10.0023 10.0001)">
<stop stop-color="#0AFA5A"/>
<stop offset="1" stop-color="#222FE9"/>
</radialGradient>
<radialGradient id="paint1_radial_156_320" cx="0" cy="0" r="1" gradientUnits="userSpaceOnUse" gradientTransform="translate(9.50018 10.4475) rotate(90) scale(4.47751 3.5)">
<stop stop-color="#0AFA5A"/>
<stop offset="1" stop-color="#222FE9"/>
</radialGradient>
</defs>
</svg>
