<svg width="21" height="15" viewBox="0 0 21 15" fill="none" xmlns="http://www.w3.org/2000/svg">
<circle cx="7" cy="4" r="3" stroke="url(#paint0_radial_135_581)" stroke-width="2"/>
<mask id="path-2-inside-1_135_581" fill="white">
<path d="M9 9C11.7614 9 14 11.2386 14 14V15H0V14C1.28855e-07 11.2386 2.23858 9 5 9H9Z"/>
</mask>
<path d="M9 9V7V9ZM14 15V17H16V15H14ZM0 15H-2V17H0V15ZM0 14H-2H0ZM5 9V7V9ZM9 9V11C10.6569 11 12 12.3431 12 14H14H16C16 10.134 12.866 7 9 7V9ZM14 14H12V15H14H16V14H14ZM14 15V13H0V15V17H14V15ZM0 15H2V14H0H-2V15H0ZM0 14H2C2 12.3431 3.34315 11 5 11V9V7C1.13401 7 -2 10.134 -2 14H0ZM5 9V11H9V9V7H5V9Z" fill="url(#paint1_radial_135_581)" mask="url(#path-2-inside-1_135_581)"/>
<circle cx="16.5" cy="7.5" r="1.5" stroke="url(#paint2_radial_135_581)" stroke-width="2"/>
<mask id="path-5-inside-2_135_581" fill="white">
<path d="M16.667 11C18.6919 11.0002 20.333 12.6421 20.333 14.667V15H13V14.667C13 12.642 14.642 11 16.667 11Z"/>
</mask>
<path d="M16.667 11L16.6672 9H16.667V11ZM20.333 15V17H22.333V15H20.333ZM13 15H11V17H13V15ZM16.667 11L16.6668 13C17.5867 13.0001 18.333 13.7462 18.333 14.667H20.333H22.333C22.333 11.538 19.797 9.0003 16.6672 9L16.667 11ZM20.333 14.667H18.333V15H20.333H22.333V14.667H20.333ZM20.333 15V13H13V15V17H20.333V15ZM13 15H15V14.667H13H11V15H13ZM13 14.667H15C15 13.7465 15.7465 13 16.667 13V11V9C13.5374 9 11 11.5374 11 14.667H13Z" fill="url(#paint3_radial_135_581)" mask="url(#path-5-inside-2_135_581)"/>
<defs>
<radialGradient id="paint0_radial_135_581" cx="0" cy="0" r="1" gradientUnits="userSpaceOnUse" gradientTransform="translate(7 4) rotate(90) scale(4)">
<stop stop-color="#0AFA5A"/>
<stop offset="1" stop-color="#222FE9"/>
</radialGradient>
<radialGradient id="paint1_radial_135_581" cx="0" cy="0" r="1" gradientUnits="userSpaceOnUse" gradientTransform="translate(7 12) rotate(90) scale(3 7)">
<stop stop-color="#0AFA5A"/>
<stop offset="1" stop-color="#222FE9"/>
</radialGradient>
<radialGradient id="paint2_radial_135_581" cx="0" cy="0" r="1" gradientUnits="userSpaceOnUse" gradientTransform="translate(16.5 7.5) rotate(90) scale(2.5)">
<stop stop-color="#0AFA5A"/>
<stop offset="1" stop-color="#222FE9"/>
</radialGradient>
<radialGradient id="paint3_radial_135_581" cx="0" cy="0" r="1" gradientUnits="userSpaceOnUse" gradientTransform="translate(16.6665 13) rotate(90) scale(2 3.6665)">
<stop stop-color="#0AFA5A"/>
<stop offset="1" stop-color="#222FE9"/>
</radialGradient>
</defs>
</svg>
