<svg width="24" height="24" viewBox="0 0 24 24" fill="none" xmlns="http://www.w3.org/2000/svg">
<path d="M7.2 5.97974C6.88174 5.97974 6.57652 6.10616 6.35147 6.33121C6.12643 6.55625 6 6.86148 6 7.17974C6 7.498 6.12643 7.80322 6.35147 8.02826C6.57652 8.25331 6.88174 8.37974 7.2 8.37974H16.8C17.1183 8.37974 17.4235 8.25331 17.6485 8.02826C17.8736 7.80322 18 7.498 18 7.17974C18 6.86148 17.8736 6.55625 17.6485 6.33121C17.4235 6.10616 17.1183 5.97974 16.8 5.97974H7.2ZM6 12.0001C6 11.6819 6.12643 11.3767 6.35147 11.1516C6.57652 10.9266 6.88174 10.8001 7.2 10.8001H16.8C17.1183 10.8001 17.4235 10.9266 17.6485 11.1516C17.8736 11.3767 18 11.6819 18 12.0001C18 12.3184 17.8736 12.6236 17.6485 12.8487C17.4235 13.0737 17.1183 13.2001 16.8 13.2001H7.2C6.88174 13.2001 6.57652 13.0737 6.35147 12.8487C6.12643 12.6236 6 12.3184 6 12.0001ZM7.2 15.6205C6.88174 15.6205 6.57652 15.747 6.35147 15.972C6.12643 16.1971 6 16.5023 6 16.8205C6 17.1388 6.12643 17.444 6.35147 17.6691C6.57652 17.8941 6.88174 18.0205 7.2 18.0205H16.8C17.1183 18.0205 17.4235 17.8941 17.6485 17.6691C17.8736 17.444 18 17.1388 18 16.8205C18 16.5023 17.8736 16.1971 17.6485 15.972C17.4235 15.747 17.1183 15.6205 16.8 15.6205H7.2Z" fill="url(#paint0_radial_39_432)"/>
<path fill-rule="evenodd" clip-rule="evenodd" d="M24 12C24 18.6276 18.6276 24 12 24C5.3724 24 0 18.6276 0 12C0 5.3724 5.3724 0 12 0C18.6276 0 24 5.3724 24 12ZM21.6 12C21.6 14.5461 20.5886 16.9879 18.7882 18.7882C16.9879 20.5886 14.5461 21.6 12 21.6C9.45392 21.6 7.01212 20.5886 5.21178 18.7882C3.41143 16.9879 2.4 14.5461 2.4 12C2.4 9.45392 3.41143 7.01212 5.21178 5.21178C7.01212 3.41143 9.45392 2.4 12 2.4C14.5461 2.4 16.9879 3.41143 18.7882 5.21178C20.5886 7.01212 21.6 9.45392 21.6 12Z" fill="url(#paint1_radial_39_432)"/>
<defs>
<radialGradient id="paint0_radial_39_432" cx="0" cy="0" r="1" gradientUnits="userSpaceOnUse" gradientTransform="translate(12 12.0001) rotate(90) scale(6.0204 6)">
<stop stop-color="#0AFA5A"/>
<stop offset="1" stop-color="#222FE9"/>
</radialGradient>
<radialGradient id="paint1_radial_39_432" cx="0" cy="0" r="1" gradientUnits="userSpaceOnUse" gradientTransform="translate(12 12) rotate(90) scale(12)">
<stop stop-color="#0AFA5A"/>
<stop offset="1" stop-color="#222FE9"/>
</radialGradient>
</defs>
</svg>
