<svg width="20" height="20" viewBox="0 0 20 20" fill="none" xmlns="http://www.w3.org/2000/svg">
<rect x="6" y="1" width="8" height="8" rx="4" stroke="url(#paint0_radial_121_535)" stroke-width="2"/>
<mask id="path-2-inside-1_121_535" fill="white">
<path d="M10 11C15.5227 11 19.9998 14.395 20 18.583C20 18.7793 19.9871 18.9735 19.9678 19.166V19H0.015625C0.00575709 18.8619 0 18.7229 0 18.583C0.000232094 14.395 4.4773 11 10 11Z"/>
</mask>
<path d="M20 18.583L22 18.583L22 18.5829L20 18.583ZM19.9678 19.166H17.9678L21.9578 19.3656L19.9678 19.166ZM19.9678 19H21.9678V17H19.9678V19ZM0.015625 19L-1.97929 19.1426L-1.84653 21H0.015625V19ZM0 18.583L-2 18.5829V18.583H0ZM10 11V13C12.3653 13 14.4313 13.7294 15.8625 14.8146C17.2923 15.8989 17.9999 17.2502 18 18.5831L20 18.583L22 18.5829C21.9998 15.7278 20.4688 13.2877 18.2794 11.6274C16.0913 9.96812 13.1574 9 10 9V11ZM20 18.583H18C18 18.6929 17.9927 18.8172 17.9778 18.9664L19.9678 19.166L21.9578 19.3656C21.9814 19.1298 22 18.8657 22 18.583H20ZM19.9678 19.166H21.9678V19H19.9678H17.9678V19.166H19.9678ZM19.9678 19V17H0.015625V19V21H19.9678V19ZM0.015625 19L2.01054 18.8574C2.00351 18.7592 2 18.6683 2 18.583H0H-2C-2 18.7776 -1.992 18.9647 -1.97929 19.1426L0.015625 19ZM0 18.583L2 18.5831C2.00007 17.2502 2.70772 15.8989 4.13752 14.8146C5.56868 13.7294 7.63473 13 10 13V11V9C6.84256 9 3.90874 9.96812 1.72062 11.6274C-0.46884 13.2877 -1.99984 15.7278 -2 18.5829L0 18.583Z" fill="url(#paint1_radial_121_535)" mask="url(#path-2-inside-1_121_535)"/>
<defs>
<radialGradient id="paint0_radial_121_535" cx="0" cy="0" r="1" gradientUnits="userSpaceOnUse" gradientTransform="translate(10 5) rotate(90) scale(5)">
<stop stop-color="#0AFA5A"/>
<stop offset="1" stop-color="#222FE9"/>
</radialGradient>
<radialGradient id="paint1_radial_121_535" cx="0" cy="0" r="1" gradientUnits="userSpaceOnUse" gradientTransform="translate(10 15.083) rotate(90) scale(4.08301 10)">
<stop stop-color="#0AFA5A"/>
<stop offset="1" stop-color="#222FE9"/>
</radialGradient>
</defs>
</svg>
