<svg width="21" height="22" viewBox="0 0 21 22" fill="none" xmlns="http://www.w3.org/2000/svg">
<path fill-rule="evenodd" clip-rule="evenodd" d="M7.695 0H13.805C15.172 0 16.275 -1.49012e-08 17.142 0.117C18.042 0.237 18.8 0.497 19.402 1.098C20.004 1.7 20.262 2.458 20.384 3.358C20.5 4.225 20.5 5.328 20.5 6.695V14.805C20.5 16.172 20.5 17.275 20.384 18.142C20.262 19.042 20.004 19.8 19.402 20.402C18.8 21.004 18.042 21.262 17.142 21.384C16.275 21.5 15.172 21.5 13.805 21.5H7.695L6.796 21.499C6.76269 21.5007 6.72931 21.5007 6.696 21.499C5.778 21.492 5.003 21.47 4.358 21.384C3.458 21.262 2.7 21.004 2.098 20.402C1.496 19.8 1.238 19.042 1.117 18.142C1.02 17.427 1.004 16.552 1.001 15.5H0.75C0.551088 15.5 0.360322 15.421 0.21967 15.2803C0.0790177 15.1397 0 14.9489 0 14.75C0 14.5511 0.0790177 14.3603 0.21967 14.2197C0.360322 14.079 0.551088 14 0.75 14H1V11.5H0.75C0.551088 11.5 0.360322 11.421 0.21967 11.2803C0.0790177 11.1397 0 10.9489 0 10.75C0 10.5511 0.0790177 10.3603 0.21967 10.2197C0.360322 10.079 0.551088 10 0.75 10H1V7.5H0.75C0.551088 7.5 0.360322 7.42098 0.21967 7.28033C0.0790177 7.13968 0 6.94891 0 6.75C0 6.55109 0.0790177 6.36032 0.21967 6.21967C0.360322 6.07902 0.551088 6 0.75 6H1C1.004 4.948 1.02 4.073 1.117 3.358C1.237 2.458 1.497 1.7 2.098 1.098C2.7 0.496 3.458 0.238 4.358 0.117C5.225 -1.49012e-08 6.328 0 7.695 0ZM2.5 7.5H2.75C2.94891 7.5 3.13968 7.42098 3.28033 7.28033C3.42098 7.13968 3.5 6.94891 3.5 6.75C3.5 6.55109 3.42098 6.36032 3.28033 6.21967C3.13968 6.07902 2.94891 6 2.75 6H2.5C2.504 4.954 2.52 4.174 2.603 3.558C2.702 2.824 2.883 2.436 3.159 2.159C3.436 1.882 3.824 1.702 4.559 1.603C4.959 1.549 5.431 1.523 6 1.511V19.99C5.518 19.9861 5.03659 19.9554 4.558 19.898C3.824 19.799 3.436 19.618 3.159 19.342C2.882 19.065 2.702 18.677 2.603 17.942C2.52 17.327 2.504 16.547 2.501 15.501H2.75C2.94891 15.501 3.13968 15.422 3.28033 15.2813C3.42098 15.1407 3.5 14.9499 3.5 14.751C3.5 14.5521 3.42098 14.3613 3.28033 14.2207C3.13968 14.08 2.94891 14.001 2.75 14.001H2.5V11.501H2.75C2.94891 11.501 3.13968 11.422 3.28033 11.2813C3.42098 11.1407 3.5 10.9499 3.5 10.751C3.5 10.5521 3.42098 10.3613 3.28033 10.2207C3.13968 10.08 2.94891 10.001 2.75 10.001H2.5V7.5ZM7.5 20H13.75C15.185 20 16.186 19.998 16.942 19.897C17.676 19.798 18.064 19.617 18.341 19.341C18.618 19.064 18.798 18.676 18.897 17.941C18.998 17.186 19 16.185 19 14.75V6.75C19 5.315 18.998 4.313 18.897 3.558C18.798 2.824 18.617 2.436 18.341 2.159C18.064 1.882 17.676 1.702 16.941 1.603C16.186 1.502 15.185 1.5 13.75 1.5H7.5V20ZM9.5 5.25C9.5 5.05109 9.57902 4.86032 9.71967 4.71967C9.86032 4.57902 10.0511 4.5 10.25 4.5H15.25C15.4489 4.5 15.6397 4.57902 15.7803 4.71967C15.921 4.86032 16 5.05109 16 5.25C16 5.44891 15.921 5.63968 15.7803 5.78033C15.6397 5.92098 15.4489 6 15.25 6H10.25C10.0511 6 9.86032 5.92098 9.71967 5.78033C9.57902 5.63968 9.5 5.44891 9.5 5.25ZM9.5 8.75C9.5 8.55109 9.57902 8.36032 9.71967 8.21967C9.86032 8.07902 10.0511 8 10.25 8H15.25C15.4489 8 15.6397 8.07902 15.7803 8.21967C15.921 8.36032 16 8.55109 16 8.75C16 8.94891 15.921 9.13968 15.7803 9.28033C15.6397 9.42098 15.4489 9.5 15.25 9.5H10.25C10.0511 9.5 9.86032 9.42098 9.71967 9.28033C9.57902 9.13968 9.5 8.94891 9.5 8.75Z" fill="url(#paint0_radial_39_440)"/>
<defs>
<radialGradient id="paint0_radial_39_440" cx="0" cy="0" r="1" gradientUnits="userSpaceOnUse" gradientTransform="translate(10.25 10.7501) rotate(90) scale(10.7501 10.25)">
<stop stop-color="#0AFA5A"/>
<stop offset="1" stop-color="#222FE9"/>
</radialGradient>
</defs>
</svg>
